<?xml version="1.0" standalone="no"?><!DOCTYPE svg PUBLIC "-//W3C//DTD SVG 1.1//EN" "http://www.w3.org/Graphics/SVG/1.1/DTD/svg11.dtd"><svg t="1597169318149" class="icon" viewBox="0 0 1024 1024" version="1.1" xmlns="http://www.w3.org/2000/svg" p-id="3991" xmlns:xlink="http://www.w3.org/1999/xlink" width="200" height="200"><defs><style type="text/css"></style></defs><path d="M582.72291272 211.86512849h-141.38650216c-9.74874785 0-18.05891207 3.39624229-25.00959156 10.29748525-6.88641286 6.90124295-10.35186517 15.24106953-10.35186516 25.02936573v35.223036h212.08964069v-35.223036c0-9.78829622-3.48522648-18.1281228-10.36175189-25.02936573-6.93584867-6.90124295-15.2460129-10.29748523-25.02442238-10.29748525h0.04449246z m141.37167132 564.90334366V353.06871818H299.92024677v423.7096407c0 9.67953712 3.47533974 18.0193637 10.36175189 24.92060665 6.94079205 6.90124295 15.26084372 10.40130097 25.01453492 10.40130097h353.4514253c9.75369121 0 18.10340452-3.5000573 24.97992992-10.40130097 6.95067878-6.90124295 10.38152606-15.24106953 10.38152606-24.92555001h-0.01977417zM441.32157974 141.21142578h141.35684052c29.27096108 0 54.27560857 10.29748523 74.9892256 30.99627147 20.69878622 20.70372958 31.0605381 45.62928033 31.06053883 74.88046723v35.32190762h141.3766147c9.74874785 0 18.10340452 3.50500139 24.97992992 10.30242862 6.93584867 7.00011458 10.38152606 15.24106953 10.3815268 25.02442238 0 9.78829622-3.44567811 18.02430706-10.3815268 25.02936575-6.8765254 6.79742795-15.22623872 10.29748523-24.97992992 10.29748597h-35.34662518v423.7096407c0 29.24624281-10.35186517 54.17179356-31.05065137 74.87057977-20.71361704 20.70372958-45.72815196 31.10503057-74.97933815 31.10503057H335.28170277c-29.28084782 0-54.26572184-10.40130097-74.97933814-31.10503057-20.71361704-20.69878622-31.0605381-45.62433697-31.06053884-74.87057977V353.05883072h-35.34662518c-9.74874785 0-18.05891207-3.5000573-24.99970411-10.29748523C161.9991962 335.76123015 158.53374389 327.52027594 158.53374389 317.7369231c0-9.78335286 3.46050893-18.0193637 10.36175261-25.02442238 6.94079205-6.79742795 15.25095698-10.30242933 24.99970411-10.30242862h141.38650216v-35.32190763c0-29.25118618 10.35186517-54.17673693 31.0605381-74.87552313C387.04597118 151.50891102 412.0259011 141.21142578 441.32157974 141.21142578z" p-id="3992"></path></svg>