<?xml version="1.0" standalone="no"?><!DOCTYPE svg PUBLIC "-//W3C//DTD SVG 1.1//EN" "http://www.w3.org/Graphics/SVG/1.1/DTD/svg11.dtd"><svg t="1597505581347" class="icon" viewBox="0 0 1170 1024" version="1.1" xmlns="http://www.w3.org/2000/svg" p-id="4920" xmlns:xlink="http://www.w3.org/1999/xlink" width="228.515625" height="200"><defs><style type="text/css"></style></defs><path d="M149.430857 9.142857h-54.272C50.980571 9.142857 15.140571 44.982857 15.140571 89.161143V936.228571c0 44.178286 35.84 80.018286 80.018286 80.018286h54.272c44.178286 0 80.018286-35.84 80.018286-80.018286V89.161143c0-44.178286-35.84-80.018286-80.018286-80.018286z m241.005714 551.716572l603.282286 433.444571a102.838857 102.838857 0 0 0 162.816-83.529143V112.054857a102.838857 102.838857 0 0 0-159.890286-85.577143L392.704 429.348571a80.018286 80.018286 0 0 0-2.267429 131.510858z" p-id="4921"></path></svg>