<?xml version="1.0" standalone="no"?><!DOCTYPE svg PUBLIC "-//W3C//DTD SVG 1.1//EN" "http://www.w3.org/Graphics/SVG/1.1/DTD/svg11.dtd"><svg t="1597505784269" class="icon" viewBox="0 0 1024 1024" version="1.1" xmlns="http://www.w3.org/2000/svg" p-id="6271" xmlns:xlink="http://www.w3.org/1999/xlink" width="200" height="200"><defs><style type="text/css"></style></defs><path d="M859.02222222 111.50222222h43.23555556c35.18919111 0 63.71555555 28.52636445 63.71555555 63.71555556v674.70222222c0 35.18919111-28.52636445 63.71555555-63.71555555 63.71555555h-43.23555556c-35.18919111 0-63.71555555-28.52636445-63.71555555-63.71555555V175.21777778c0-35.18919111 28.52636445-63.71555555 63.71555555-63.71555556zM667.09504 550.90176l-480.48810667 345.20177778c-36.74339555 26.39758222-87.92974222 18.01102222-114.32846222-18.73237333A81.92 81.92 0 0 1 56.88888889 829.57312V193.49504c0-45.24259555 36.67626667-81.92 81.92-81.92a81.92 81.92 0 0 1 45.45422222 13.76711111l481.00920889 320.80668444c29.27502222 19.52426667 37.17916445 59.0848 17.65489778 88.35982223a63.71555555 63.71555555 0 0 1-15.83217778 16.39310222z" p-id="6272"></path></svg>