<?xml version="1.0" standalone="no"?><!DOCTYPE svg PUBLIC "-//W3C//DTD SVG 1.1//EN" "http://www.w3.org/Graphics/SVG/1.1/DTD/svg11.dtd"><svg t="1599249467814" class="icon" viewBox="0 0 1024 1024" version="1.1" xmlns="http://www.w3.org/2000/svg" p-id="2269" xmlns:xlink="http://www.w3.org/1999/xlink" width="200" height="200"><defs><style type="text/css"></style></defs><path d="M463.872 159.232L258.56 313.344H130.048c-35.84 0-64 28.672-64 63.488V634.88c0 34.816 28.672 63.488 64 63.488h128.512l205.312 154.112c28.672 21.504 51.2 9.728 51.2-25.6V185.344c0-35.328-23.04-47.104-51.2-26.112zM619.52 626.688c-5.12 0-10.24-2.048-14.336-6.144-8.192-8.192-8.192-20.992 0-29.184l200.192-200.192c8.192-8.192 20.992-8.192 29.184 0 8.192 8.192 8.192 20.992 0 29.184l-200.192 200.192c-4.608 4.096-9.728 6.144-14.848 6.144z" p-id="2270"></path><path d="M820.224 627.712c-5.12 0-10.24-2.048-14.336-6.144l-200.192-200.192c-8.192-8.192-8.192-20.992 0-29.184 8.192-8.192 20.992-8.192 29.184 0l200.192 200.192c8.192 8.192 8.192 20.992 0 29.184-4.096 4.096-9.216 6.144-14.848 6.144z" p-id="2271"></path></svg>