<?xml version="1.0" standalone="no"?><!DOCTYPE svg PUBLIC "-//W3C//DTD SVG 1.1//EN" "http://www.w3.org/Graphics/SVG/1.1/DTD/svg11.dtd"><svg t="1597506874582" class="icon" viewBox="0 0 1024 1024" version="1.1" xmlns="http://www.w3.org/2000/svg" p-id="11025" xmlns:xlink="http://www.w3.org/1999/xlink" width="200" height="200"><defs><style type="text/css"></style></defs><path d="M512 921.6a409.6 409.6 0 1 0 0-819.2 409.6 409.6 0 0 0 0 819.2z m0 102.4C229.248 1024 0 794.752 0 512S229.248 0 512 0s512 229.248 512 512-229.248 512-512 512zM354.133333 341.333333a51.2 51.2 0 1 1 102.4 0v341.333334a51.2 51.2 0 1 1-102.4 0V341.333333z m213.333334 0a51.2 51.2 0 1 1 102.4 0v341.333334a51.2 51.2 0 1 1-102.4 0V341.333333z" p-id="11026"></path></svg>